<mxfile compressed="false" host="app.diagrams.net" modified="2022-11-29T22:20:38.021Z" agent="5.0 (Windows NT 10.0; Win64; x64) AppleWebKit/537.36 (KHTML, like Gecko) Chrome/107.0.0.0 Safari/537.36" etag="92Y7kBUWr50LMMusNsqK" version="20.6.0" type="github"><diagram id="b3IY-KuWAlmWdipaNx6L" name="ページ1"><mxGraphModel dx="886" dy="472" grid="1" gridSize="10" guides="1" tooltips="1" connect="1" arrows="1" fold="1" page="1" pageScale="1" pageWidth="827" pageHeight="1169" math="0" shadow="0"><root><mxCell id="0"/><mxCell id="1" parent="0"/><mxCell id="rn-Xn6j3JbN983fssRj3-1" value="" style="endArrow=classic;html=1;rounded=0;" edge="1" parent="1"><mxGeometry width="50" height="50" relative="1" as="geometry"><mxPoint x="40" y="160" as="sourcePoint"/><mxPoint x="800" y="160" as="targetPoint"/></mxGeometry></mxCell><mxCell id="rn-Xn6j3JbN983fssRj3-2" value="" style="endArrow=none;dashed=1;html=1;dashPattern=1 3;strokeWidth=2;rounded=0;" edge="1" parent="1"><mxGeometry width="50" height="50" relative="1" as="geometry"><mxPoint x="160" y="320" as="sourcePoint"/><mxPoint x="160" y="80" as="targetPoint"/></mxGeometry></mxCell><mxCell id="rn-Xn6j3JbN983fssRj3-3" value="" style="endArrow=none;dashed=1;html=1;dashPattern=1 3;strokeWidth=2;rounded=0;" edge="1" parent="1"><mxGeometry width="50" height="50" relative="1" as="geometry"><mxPoint x="680" y="320" as="sourcePoint"/><mxPoint x="680" y="80" as="targetPoint"/></mxGeometry></mxCell><mxCell id="rn-Xn6j3JbN983fssRj3-4" value="スタート時刻" style="text;html=1;strokeColor=none;fillColor=none;align=center;verticalAlign=middle;whiteSpace=wrap;rounded=0;" vertex="1" parent="1"><mxGeometry x="100" y="50" width="120" height="30" as="geometry"/></mxCell><mxCell id="rn-Xn6j3JbN983fssRj3-5" value="ゴール時刻" style="text;html=1;strokeColor=none;fillColor=none;align=center;verticalAlign=middle;whiteSpace=wrap;rounded=0;" vertex="1" parent="1"><mxGeometry x="620" y="50" width="120" height="30" as="geometry"/></mxCell><mxCell id="rn-Xn6j3JbN983fssRj3-6" value="" style="shape=mxgraph.signs.transportation.car_3;html=1;pointerEvents=1;fillColor=#000000;strokeColor=none;verticalLabelPosition=bottom;verticalAlign=top;align=center;flipH=1;" vertex="1" parent="1"><mxGeometry x="50" y="180" width="99" height="38" as="geometry"/></mxCell><mxCell id="rn-Xn6j3JbN983fssRj3-7" value="LAP" style="rounded=0;whiteSpace=wrap;html=1;" vertex="1" parent="1"><mxGeometry x="160" y="189" width="60" height="20" as="geometry"/></mxCell><mxCell id="rn-Xn6j3JbN983fssRj3-8" value="LAP" style="rounded=0;whiteSpace=wrap;html=1;" vertex="1" parent="1"><mxGeometry x="220" y="189" width="60" height="20" as="geometry"/></mxCell><mxCell id="rn-Xn6j3JbN983fssRj3-9" value="LAP" style="rounded=0;whiteSpace=wrap;html=1;" vertex="1" parent="1"><mxGeometry x="280" y="189" width="60" height="20" as="geometry"/></mxCell><mxCell id="rn-Xn6j3JbN983fssRj3-10" value="LAP" style="rounded=0;whiteSpace=wrap;html=1;" vertex="1" parent="1"><mxGeometry x="370" y="189" width="60" height="20" as="geometry"/></mxCell><mxCell id="rn-Xn6j3JbN983fssRj3-11" value="PIT" style="rounded=0;whiteSpace=wrap;html=1;" vertex="1" parent="1"><mxGeometry x="340" y="189" width="30" height="20" as="geometry"/></mxCell></root></mxGraphModel></diagram></mxfile>